PathFileType  4	(X/Y/Z) C:\Users\antoi\Documents\MyRepositories\mobilecap\ResultsAnalysis
DataRate	CameraRate	NumFrames	NumMarkers	Units	OrigDataRate	OrigDataStartFrame	OrigNumFrames
100.0	100.0	4	51	mm	100.0	174	231
Frame#	Time	r_knee			r_shank_antsup			r_ankle			r_calc			r_5meta			r_toe			L_knee			L_shank_antsup			L_ankle			L_calc			L_5meta			L_toe			r_sh2			r_sh3			r_sh4			L_sh2			L_sh3			r_thigh1			r_thigh2			r_thigh3			r_thigh4			r_thigh5			L_thigh1			L_thigh2			L_thigh3			L_thigh4			r.ASIS			r.PSIS			L.ASIS			L.PSIS			C7			R_Shoulder			L_Shoulder			R_Sternum			L_Sternum			R_humerus			R_elbow_med			R_elbow_lat			R_forearm			R_wrist_radius			R_wrist_ulna			L_humerus			L_elbow_med			L_elbow_lat			L_forearm			L_wrist_radius			L_wrist_ulna			R_HJC			L_HJC			R_HJC_reg			L_HJC_reg			
		X1	Y1	Z1	X2	Y2	Z2	X3	Y3	Z3	X4	Y4	Z4	X5	Y5	Z5	X6	Y6	Z6	X7	Y7	Z7	X8	Y8	Z8	X9	Y9	Z9	X10	Y10	Z10	X11	Y11	Z11	X12	Y12	Z12	X13	Y13	Z13	X14	Y14	Z14	X15	Y15	Z15	X16	Y16	Z16	X17	Y17	Z17	X18	Y18	Z18	X19	Y19	Z19	X20	Y20	Z20	X21	Y21	Z21	X22	Y22	Z22	X23	Y23	Z23	X24	Y24	Z24	X25	Y25	Z25	X26	Y26	Z26	X27	Y27	Z27	X28	Y28	Z28	X29	Y29	Z29	X30	Y30	Z30	X31	Y31	Z31	X32	Y32	Z32	X33	Y33	Z33	X34	Y34	Z34	X35	Y35	Z35	X36	Y36	Z36	X37	Y37	Z37	X38	Y38	Z38	X39	Y39	Z39	X40	Y40	Z40	X41	Y41	Z41	X42	Y42	Z42	X43	Y43	Z43	X44	Y44	Z44	X45	Y45	Z45	X46	Y46	Z46	X47	Y47	Z47	X48	Y48	Z48	X49	Y49	Z49	X50	Y50	Z50	X51	Y51	Z51	

174	1.73000000	-209.90092	1009.55105	-436.57578	-167.52135	914.46165	-439.47324	-252.29758	579.48131	-444.03222	-338.69154	592.62515	-493.43930	-204.51153	437.38077	-423.57277	-133.92781	438.56064	-479.94028	-284.87603	997.99221	-830.41461	-285.61848	910.51130	-856.57594	-348.52643	578.46602	-815.15663	-432.66604	580.84828	-753.60830	-299.46844	442.67917	-843.24334	-230.76005	432.67417	-785.14359	-190.05267	807.53842	-408.50600	-228.68526	938.42117	-401.08519	-266.86873	828.95937	-389.97797	-374.63990	924.20231	-844.23973	-379.99224	802.06021	-843.77985	-223.58630	1338.36161	-440.38616	-190.74809	1234.43691	-440.82598	-232.54259	1194.56247	-408.28098	-328.74192	1299.59132	-434.62721	-285.66048	1193.24728	-426.29884	-242.17314	1292.54325	-823.17393	-217.69885	1154.30983	-821.13571	-348.88807	1273.35786	-843.85692	-330.13980	1137.33968	-840.18689	-236.63492	1535.99670	-512.25248	-417.36965	1552.13473	-564.88600	-253.60838	1530.51372	-755.58856	-427.93690	1552.40737	-675.58254	-311.98886	2091.39615	-630.26588	-267.96886	2055.66019	-480.04411	-301.49199	2049.79237	-778.92535	-189.63809	2004.90450	-604.62009	-194.11163	1999.48755	-667.03870	-270.67288	2008.13294	-340.29878	-277.29740	1852.02454	-188.29804	-331.27792	1920.06513	-171.05144	-247.91851	1956.74474	-17.78160	-184.77026	1982.11074	46.65272	-216.38770	1952.46472	59.79220	-340.50032	2025.33382	-896.54300	-283.59606	1883.13554	-1089.97690	-326.57247	1959.00000	-1103.72523	-267.17799	2007.16422	-1123.25803	-111.23530	2079.15059	-1161.34435	-117.18912	2066.30830	-1199.64489	-317.85191	1421.18305	-521.53691	-337.61000	1423.90564	-727.53407	-296.82683	1454.09843	-540.96377	-312.12724	1454.49337	-701.26831	
175	1.74000000	-212.83664	1017.50928	-437.79233	-170.09015	922.36216	-440.39244	-253.40576	587.30858	-444.18045	-340.22161	598.81295	-493.59082	-203.71285	445.72282	-423.66111	-133.28203	447.73919	-480.04493	-287.71584	1005.80646	-829.60042	-289.51518	918.73741	-856.31853	-348.19513	585.82022	-815.68786	-432.29057	584.49958	-753.41598	-294.77530	452.87088	-846.80096	-225.73805	443.78824	-788.63350	-192.31849	815.24276	-409.51245	-231.37122	945.92025	-402.10830	-269.42617	836.67831	-390.87449	-378.50804	931.25306	-842.36248	-382.43858	809.08680	-842.81915	-222.23801	1346.65782	-442.78171	-190.55888	1242.42954	-443.82172	-232.06101	1203.09424	-409.92349	-327.87783	1309.05334	-434.68645	-285.58427	1202.12569	-426.94141	-240.95502	1300.49997	-820.77125	-218.53697	1161.76597	-817.94755	-347.44558	1282.48725	-844.84161	-330.40360	1146.19362	-841.33139	-237.47060	1544.57447	-512.69555	-417.53710	1561.23866	-565.86129	-253.55307	1538.88328	-755.66880	-428.01244	1561.73076	-676.18168	-313.84573	2100.36635	-630.14274	-270.74672	2063.65312	-479.68881	-303.58827	2058.26166	-778.99958	-191.87520	2013.48183	-604.40198	-195.95910	2007.99867	-666.92099	-274.92359	2013.12120	-340.17159	-284.18078	1853.23432	-191.76645	-338.21308	1921.53757	-173.71887	-256.75482	1953.94215	-18.87657	-194.48549	1977.24881	47.33997	-226.53086	1947.09943	59.20231	-343.35653	2033.07296	-896.38777	-290.34051	1887.14465	-1087.97912	-332.72871	1963.33274	-1102.47630	-273.19307	2010.62982	-1123.22777	-116.78131	2080.28024	-1164.56233	-123.36202	2067.12829	-1202.55994	-318.94049	1430.03674	-521.92625	-338.07519	1432.69253	-727.98333	-297.42637	1462.67229	-541.53150	-312.62032	1463.38661	-701.56814	
176	1.75000000	-216.19142	1024.52854	-438.74984	-172.84758	929.11052	-441.30717	-254.47597	593.85273	-444.55378	-341.57591	603.71957	-493.98554	-202.75602	453.03405	-423.59881	-132.41093	455.81721	-480.25676	-290.77245	1012.60466	-829.38397	-293.54502	925.69791	-855.88062	-347.66997	592.06989	-815.73377	-431.37134	587.38610	-752.47362	-290.58232	461.95925	-849.36101	-220.79399	453.81185	-791.51082	-194.63870	821.90020	-410.29141	-234.18928	952.70849	-403.23147	-271.94588	843.01932	-392.09315	-382.43469	937.08459	-840.35829	-384.90378	814.86626	-841.21181	-221.27559	1353.80556	-445.13220	-190.71473	1249.20926	-446.67264	-231.90392	1210.43901	-411.63413	-327.39732	1317.18488	-434.51103	-285.82012	1209.84414	-427.39898	-240.80184	1307.15700	-819.04951	-220.07812	1168.21003	-815.83561	-346.86878	1290.30736	-846.00258	-331.35693	1153.88191	-842.81113	-238.24224	1552.07445	-513.26883	-417.76704	1569.20428	-566.65950	-253.55799	1546.31891	-755.90926	-428.12215	1569.91248	-676.62671	-315.93398	2108.12328	-630.04429	-273.40870	2070.66558	-479.26332	-305.68243	2065.82125	-778.84725	-194.09569	2020.94250	-604.21383	-197.87886	2015.35678	-666.90476	-278.76327	2017.36920	-340.26723	-291.50605	1853.85000	-195.65733	-344.66130	1922.47234	-176.99293	-265.27321	1951.27458	-20.18432	-203.58399	1972.81854	47.30259	-236.25719	1942.60726	58.19640	-345.91474	2039.90680	-896.05294	-296.66546	1891.14594	-1086.42773	-338.44620	1967.58267	-1101.23516	-279.18078	2013.74769	-1122.62150	-122.17511	2081.92544	-1167.14737	-129.37422	2068.77163	-1205.42349	-319.85785	1437.76534	-522.39844	-338.57172	1440.46762	-728.49391	-298.02870	1470.20850	-542.24691	-313.07685	1471.23737	-702.04271	
177	1.76000000	-218.24058	1030.53014	-439.85017	-175.69449	934.80898	-442.30302	-255.43616	599.28389	-444.91688	-342.69180	607.60514	-494.54887	-201.77872	459.19102	-423.47184	-131.56124	462.59953	-480.35481	-294.11877	1018.34138	-829.31561	-297.59522	931.50757	-855.43896	-347.04987	597.27933	-815.37572	-429.97492	589.58585	-750.91834	-286.78255	469.63252	-850.94443	-216.14323	462.67998	-793.88758	-197.08386	827.54650	-411.04097	-237.08391	958.42837	-404.14523	-274.40346	848.09379	-393.33180	-386.40093	941.75744	-838.60143	-387.23944	819.52744	-839.45112	-221.03695	1359.65938	-447.48882	-191.29059	1254.87366	-449.16604	-232.21439	1216.56441	-413.34442	-327.38123	1323.89364	-434.45890	-286.41670	1216.32200	-427.69104	-241.48859	1312.64371	-818.14324	-222.12338	1173.65566	-814.89803	-347.09911	1296.95518	-847.23094	-332.95203	1160.45484	-844.32730	-238.97590	1558.61018	-513.93115	-418.17456	1575.97917	-567.12343	-253.70913	1552.92432	-756.16092	-428.27337	1576.95687	-677.12299	-318.19103	2114.70877	-629.93978	-276.15176	2076.71007	-478.53389	-307.81992	2072.42641	-778.63062	-196.30115	2027.31040	-604.01984	-199.83387	2021.69574	-666.75146	-282.42611	2020.83912	-340.47388	-298.66999	1853.64431	-199.53441	-350.65731	1922.80417	-180.77467	-273.53778	1948.83930	-21.47875	-212.22607	1968.74385	46.60969	-245.54919	1938.78388	56.91247	-348.26444	2045.83012	-895.58650	-302.50781	1895.09791	-1085.29658	-343.73100	1971.79548	-1100.38386	-284.90320	2016.66175	-1122.26199	-127.41638	2084.11400	-1169.21666	-135.38063	2071.08995	-1208.01883	-320.60433	1444.41296	-522.92119	-339.04149	1447.27632	-729.03926	-298.71469	1476.72935	-543.16379	-313.36159	1478.14668	-702.69736	
